<svg width="149" height="88" viewBox="0 0 149 88" fill="none" xmlns="http://www.w3.org/2000/svg">
<path fill-rule="evenodd" clip-rule="evenodd" d="M65.598 0.685921C54.0195 3.59492 42.1921 13.6999 36.7498 25.3329C34.2316 30.7169 33.5218 33.7129 33.1679 40.4639C32.784 47.7879 34.3995 60.5599 35.5642 59.3959C35.7821 59.1779 37.1137 51.6199 38.5243 42.6009C39.9348 33.5819 41.2134 26.0779 41.3664 25.9249C41.5183 25.7729 44.7234 30.1449 48.4892 35.6419C52.2541 41.1389 55.4011 45.6369 55.4831 45.6369C55.565 45.6369 58.7121 41.1389 62.4769 35.6419C66.2428 30.1449 69.4888 25.8129 69.6907 26.0159C70.1066 26.4309 74.9771 57.0269 74.9771 59.2199C74.9771 60.2019 73.7715 60.6369 71.0453 60.6369C66.5377 60.6369 66.4707 60.5139 65.47 50.2829L64.7992 43.4289L60.3476 50.0649C57.9003 53.7159 55.4851 56.4469 54.9802 56.1349C54.4764 55.8239 52.359 52.7999 50.2747 49.4159L46.4858 43.2639L45.4861 51.6999L44.5 60L40.2077 60.4459L35.928 60.7549L38.6232 65.7069C42.3561 72.5679 50.6975 80.1329 58.7231 83.9359C64.9262 86.8739 66.2998 87.1369 75.477 87.1339C84.7431 87.1319 86.0018 86.8849 92.6927 83.7499C106.17 77.4359 116.088 64.0939 117.862 49.8919C119.787 34.4709 115.235 21.7319 104.077 11.3219C96.3886 4.14892 87.8212 0.492921 77.6863 0.0609206C73.1717 -0.132079 67.7323 0.148921 65.598 0.685921ZM106.117 28.7409C118.183 34.8059 117.212 53.9869 104.547 59.7409C96.5585 63.3699 86.5516 61.0659 81.896 54.5259C78.3291 49.5149 77.9422 39.3929 81.1383 34.7289C87.0904 26.0459 96.3416 23.8279 106.117 28.7409ZM0 43.6369V60.6369H3.99878H7.99756V53.6369V46.6369H15.4953H22.993V53.6369V60.6369H27.0158H31.0385L30.7646 43.8869L30.4907 26.5219H26.7908H23.091L22.792 32.8299L22.4931 39.1369H15.4953H8.49741L8.1995 32.8869L7.90259 26.6369H3.95079H0V43.6369ZM119.963 43.6369V60.6369H123.918H127.873L128.167 53.3869L128.461 46.1369L134.322 53.3869C139.986 60.3949 140.329 60.6369 144.569 60.6369C146.981 60.6369 148.938 60.2999 148.917 59.8869C148.895 59.4739 145.972 55.5369 142.422 51.1369C138.871 46.7369 135.968 42.9119 135.971 42.6369C135.974 42.3619 138.861 38.7619 142.385 34.6369L148.793 27.1369L144.625 26.8089C140.606 26.4929 140.234 26.7259 134.236 33.3089L128.015 40.1369L127.988 33.3869L127.961 26.6369H123.962H119.963V43.6369ZM91.3321 35.0969C86.2237 38.6759 85.8428 47.8159 90.6443 51.5939C96.9704 56.5709 105.968 51.8989 105.968 43.6369C105.968 35.8569 97.3913 30.8519 91.3321 35.0969Z" fill="white"/>
</svg>
